HIERARCHY
ROOT Hips
{
	OFFSET -0.001795 -0.223333 0.028219
	CHANNELS 6 Xposition Yposition Zposition Zrotation Yrotation Xrotation 
	JOINT LeftUpLeg
	{
		OFFSET 0.069520 -0.091406 -0.006815
		CHANNELS 3 Zrotation Yrotation Xrotation
		JOINT LeftLeg
		{
			OFFSET 0.034277 -0.375199 -0.004496
			CHANNELS 3 Zrotation Yrotation Xrotation
			JOINT LeftFoot
			{
				OFFSET -0.013596 -0.397961 -0.043693
				CHANNELS 3 Zrotation Yrotation Xrotation
				JOINT LeftToe
				{
					OFFSET 0.026358 -0.055791 0.119288
					CHANNELS 3 Zrotation Yrotation Xrotation
					End Site
					{
						OFFSET 0.000000 0.000000 0.000000
					}
				}
			}
		}
	}
	JOINT RightUpLeg
	{
		OFFSET -0.067670 -0.090522 -0.004320
		CHANNELS 3 Zrotation Yrotation Xrotation
		JOINT RightLeg
		{
			OFFSET -0.038290 -0.382569 -0.008850
			CHANNELS 3 Zrotation Yrotation Xrotation
			JOINT RightFoot
			{
				OFFSET 0.015774 -0.398415 -0.042312
				CHANNELS 3 Zrotation Yrotation Xrotation
				JOINT RightToe
				{
					OFFSET -0.025372 -0.048144 0.123348
					CHANNELS 3 Zrotation Yrotation Xrotation
					End Site
					{
						OFFSET 0.000000 0.000000 0.000000
					}
				}
			}
		}
	}
	JOINT Spine
	{
		OFFSET -0.002533 0.108963 -0.026696
		CHANNELS 3 Zrotation Yrotation Xrotation
		JOINT Spine1
		{
			OFFSET 0.005487 0.135180 0.001092
			CHANNELS 3 Zrotation Yrotation Xrotation
			JOINT Spine2
			{
				OFFSET 0.001457 0.052922 0.025425
				CHANNELS 3 Zrotation Yrotation Xrotation
				JOINT Neck
				{
					OFFSET -0.002778 0.213870 -0.042857
					CHANNELS 3 Zrotation Yrotation Xrotation
					JOINT Head
					{
						OFFSET 0.005152 0.064970 0.051349
						CHANNELS 3 Zrotation Yrotation Xrotation
						End Site
						{
							OFFSET 0.000000 0.000000 0.000000
						}
					}
				}
				JOINT LeftShoulder
				{
					OFFSET 0.078845 0.121749 -0.034090
					CHANNELS 3 Zrotation Yrotation Xrotation
					JOINT LeftArm
					{
						OFFSET 0.090977 0.030469 -0.008868
						CHANNELS 3 Zrotation Yrotation Xrotation
						JOINT LeftForeArm
						{
							OFFSET 0.259612 -0.012772 -0.027456
							CHANNELS 3 Zrotation Yrotation Xrotation
							JOINT LeftHand
							{
								OFFSET 0.249234 0.008986 -0.001171
								CHANNELS 3 Zrotation Yrotation Xrotation
								End Site
								{
									OFFSET 0.000000 0.000000 0.000000
								}
							}
						}
					}
				}
				JOINT RightShoulder
				{
					OFFSET -0.081759 0.118833 -0.038615
					CHANNELS 3 Zrotation Yrotation Xrotation
					JOINT RightArm
					{
						OFFSET -0.096012 0.032551 -0.009143
						CHANNELS 3 Zrotation Yrotation Xrotation
						JOINT RightForeArm
						{
							OFFSET -0.253742 -0.013329 -0.021401
							CHANNELS 3 Zrotation Yrotation Xrotation
							JOINT RightHand
							{
								OFFSET -0.255298 0.007772 -0.005559
								CHANNELS 3 Zrotation Yrotation Xrotation
								End Site
								{
									OFFSET 0.000000 0.000000 0.000000
								}
							}
						}
					}
				}
			}
		}
	}
}
MOTION
Frames: 13
Frame Time: 0.050000
0.000000 0.944378 0.000000 -1.718265 -2.695427 2.730746 -0.745609 -0.050606 -0.614404 1.586111 -0.503019 7.156810 0.689862 0.357026 -2.662257 0.000000 0.000000 0.000000 -2.648369 1.178759 -13.736005 -1.348029 1.309715 19.879132 -0.192941 -0.204158 -0.524487 0.000000 0.000000 0.000000 2.076165 -0.346321 5.285903 -0.056993 0.091402 -3.356007 0.724677 0.532157 9.222930 3.974466 -1.745302 -13.506018 0.000000 0.000000 0.000000 -16.908253 5.128188 -3.911249 -46.406500 -6.253232 -3.602810 -2.111470 -19.762494 1.206654 0.000000 0.000000 0.000000 16.431632 -3.374136 -3.357359 47.799373 6.717568 -2.402070 -5.203546 18.780123 -0.131368 0.000000 0.000000 0.000000 
-0.000202 0.942947 0.002664 -2.109309 -2.479946 3.093832 -0.214413 -0.035808 -0.406084 1.178440 -0.377960 5.825336 0.937368 0.836735 -2.837801 0.000000 0.000000 0.000000 -2.052870 1.374803 -15.387000 -2.128848 1.640912 21.526317 -0.060964 0.498161 -1.145366 0.000000 0.000000 0.000000 1.923170 -0.381623 6.027197 -0.069838 0.098195 -3.313535 0.856616 0.541142 8.779953 3.759698 -1.518601 -14.073978 0.000000 0.000000 0.000000 -17.596056 5.909082 -4.453485 -48.004241 -7.491333 -3.190009 0.278963 -20.030802 0.818676 0.000000 0.000000 0.000000 16.895284 -4.216135 -3.847275 49.975952 5.936581 -2.764346 -5.215772 19.141960 -0.130324 0.000000 0.000000 0.000000 
-0.001409 0.941443 0.006904 -2.048860 -2.449491 2.762749 -0.468756 -0.006139 -0.130049 1.915462 -0.562542 7.160950 0.480518 -1.044085 -4.579262 0.000000 0.000000 0.000000 -1.422109 1.636771 -17.490884 -2.359975 1.938454 24.480297 -0.332486 0.731452 -2.756786 0.000000 0.000000 0.000000 2.457098 -0.446363 6.520831 -0.320760 0.237225 -4.963228 0.468524 0.260343 10.763214 3.511824 -1.410930 -14.181435 0.000000 0.000000 0.000000 -17.353345 5.167551 -3.931953 -49.194652 -8.093105 -3.199333 -1.136216 -20.550169 1.118491 0.000000 0.000000 0.000000 17.553553 -3.561521 -3.609650 51.730903 5.227288 -3.326072 -5.484266 19.334035 -0.159660 0.000000 0.000000 0.000000 
-0.004084 0.939721 0.013766 -2.095167 -2.084962 3.074666 -0.378180 0.017268 0.122302 2.315635 -0.665703 7.773663 0.384758 -1.769461 -5.492190 0.000000 0.000000 0.000000 -1.411301 1.753652 -18.775990 -2.168753 1.885119 24.946890 -0.019552 1.985224 -3.380970 0.000000 0.000000 0.000000 2.402922 -0.426876 6.201409 -0.744093 0.405302 -3.806612 1.029402 -0.418361 10.559254 2.909766 -0.975383 -15.267897 0.000000 0.000000 0.000000 -18.002833 6.082899 -4.395024 -49.865010 -8.528688 -3.047422 -2.078415 -21.933643 1.410538 0.000000 0.000000 0.000000 17.951610 -3.786936 -3.930352 52.174355 4.524554 -3.595784 -4.460259 19.259246 -0.033845 0.000000 0.000000 0.000000 
-0.008447 0.937807 0.023302 -1.731320 -1.157809 2.880418 -0.477456 0.104384 1.001556 2.599489 -0.719222 7.716152 0.465461 -1.847160 -5.853708 0.000000 0.000000 0.000000 -1.156055 1.825867 -19.442651 -2.275710 1.865646 25.052625 -0.364605 0.901318 -3.283192 0.000000 0.000000 0.000000 2.536303 -0.466118 6.667710 -0.715333 0.403142 -3.857346 0.823690 -0.492664 10.786420 3.214607 -1.056734 -15.949901 0.000000 0.000000 0.000000 -18.320537 5.465256 -4.203144 -50.705884 -8.577308 -3.071212 -2.417796 -23.491129 1.572659 0.000000 0.000000 0.000000 17.795500 -4.575250 -4.207598 53.762754 4.037693 -3.959705 -3.990569 18.954503 0.061666 0.000000 0.000000 0.000000 
-0.014382 0.935924 0.035400 -1.432877 0.697942 2.768251 -0.150832 0.167060 1.785672 2.997774 -0.785882 7.496642 0.083245 -3.249624 -6.331768 0.000000 0.000000 0.000000 -1.227122 1.741100 -19.202703 -2.017475 1.649917 25.088842 -0.072355 1.447665 -2.982416 0.000000 0.000000 0.000000 2.148240 -0.472182 7.170244 -0.152731 0.178577 -3.865132 0.915368 -1.332553 10.935189 2.677722 -0.580499 -17.373665 0.000000 0.000000 0.000000 -18.488399 6.317777 -4.716355 -52.434083 -8.883982 -3.017183 -4.231595 -25.597479 2.140454 0.000000 0.000000 0.000000 16.778567 -5.047049 -4.249690 56.052909 3.775308 -4.275326 -2.708518 18.281722 0.250791 0.000000 0.000000 0.000000 
-0.021431 0.934916 0.049572 -1.099081 1.768381 2.789144 0.170383 0.233888 2.702286 3.001117 -0.757475 6.989982 -0.130703 -3.834546 -6.254626 0.000000 0.000000 0.000000 -0.841142 1.727681 -18.773450 -1.874106 1.529370 25.167589 -0.018570 1.195217 -2.357049 0.000000 0.000000 0.000000 2.166528 -0.472555 7.096956 0.254978 0.021235 -4.111635 0.640207 -1.272287 11.395112 2.867214 -0.601970 -17.625422 0.000000 0.000000 0.000000 -18.602391 6.302724 -4.865998 -53.753856 -7.944614 -3.514138 -5.574799 -27.466783 2.609359 0.000000 0.000000 0.000000 16.874205 -5.307631 -4.244027 57.327387 3.022014 -4.776991 -2.099712 18.525033 0.372664 0.000000 0.000000 0.000000 
-0.029411 0.934764 0.065225 -0.614113 2.996653 2.803706 0.475651 0.238086 2.969428 2.920354 -0.841400 8.397573 -0.206669 -4.155655 -6.285077 0.000000 0.000000 0.000000 -0.821007 1.628512 -17.965136 -1.239365 1.246823 25.803667 -0.367870 0.219336 -2.399840 0.000000 0.000000 0.000000 2.405061 -0.509887 7.311091 0.306949 0.037162 -4.780055 0.630871 -1.401008 12.263116 2.568090 -0.341247 -17.951943 0.000000 0.000000 0.000000 -17.931366 6.026239 -4.707902 -55.662617 -6.958464 -4.147289 -7.143170 -29.456655 3.214318 0.000000 0.000000 0.000000 17.193665 -5.778954 -4.399849 57.789888 3.102150 -4.869707 -1.316835 18.427270 0.511762 0.000000 0.000000 0.000000 
-0.037946 0.934836 0.082019 -0.333498 3.536702 2.633447 0.771883 0.237295 3.170977 3.156871 -1.014930 10.179173 -0.531992 -4.991739 -6.253514 0.000000 0.000000 0.000000 -0.335723 1.571651 -16.724697 -1.046462 1.132062 25.639811 -0.319352 0.569541 -2.865948 0.000000 0.000000 0.000000 2.938821 -0.560607 7.404631 0.327627 0.033516 -4.734931 0.666312 -1.078790 12.652910 2.361369 -0.108995 -18.367524 0.000000 0.000000 0.000000 -17.572005 6.116329 -4.816300 -56.832393 -6.296434 -4.576883 -8.982518 -30.444626 3.797639 0.000000 0.000000 0.000000 16.990655 -5.551289 -4.106051 58.515120 3.003093 -5.019676 -0.684138 18.706737 0.637668 0.000000 0.000000 0.000000 
-0.046580 0.934899 0.099585 -0.354568 4.873239 2.435414 1.064784 0.126567 1.997386 3.557388 -1.482629 14.756431 -0.583826 -5.713719 -6.897464 0.000000 0.000000 0.000000 0.331508 1.469645 -14.958203 -0.247393 0.731451 24.915261 -0.985476 -0.765751 -4.111083 0.000000 0.000000 0.000000 3.554028 -0.643541 7.748992 0.650894 -0.060390 -5.354684 0.883501 -0.848234 13.502823 2.555219 -0.108721 -18.470815 0.000000 0.000000 0.000000 -17.662456 5.860480 -4.888128 -57.908978 -4.753322 -5.487950 -9.832695 -31.978562 4.184098 0.000000 0.000000 0.000000 16.350308 -5.257011 -3.637358 58.681088 3.685399 -4.788708 0.499450 18.719365 0.849325 0.000000 0.000000 0.000000 
-0.054512 0.935229 0.117088 -0.341993 6.106750 2.131280 1.659198 -0.166894 -1.661953 3.046227 -2.173265 23.274087 -0.690680 -5.385983 -5.961778 0.000000 0.000000 0.000000 1.309612 1.321962 -12.494680 -0.195396 0.603842 23.757784 -1.301269 -0.900233 -6.061479 0.000000 0.000000 0.000000 4.088787 -0.763155 8.564719 0.907598 -0.165972 -5.055021 1.237565 0.064092 13.207578 3.095946 -0.268697 -18.254680 0.000000 0.000000 0.000000 -18.241126 4.833459 -4.806765 -57.835500 -3.564676 -6.016128 -10.876324 -31.992769 4.323239 0.000000 0.000000 0.000000 16.769429 -3.963570 -2.683675 57.792371 4.891862 -4.155679 -0.045512 18.326036 0.791757 0.000000 0.000000 0.000000 
-0.060618 0.934025 0.133968 -0.033927 6.827505 2.578706 1.273172 -0.535848 -6.296794 3.107308 -3.199771 31.966162 -1.459912 -4.604277 -2.258912 0.000000 0.000000 0.000000 1.283648 1.191625 -11.263781 1.198117 0.083530 23.494699 -2.184042 -3.060058 -7.551897 0.000000 0.000000 0.000000 4.204436 -0.823243 8.986497 1.592146 -0.492818 -4.284507 1.389156 1.087692 12.747623 3.229383 -0.197223 -18.068963 0.000000 0.000000 0.000000 -18.543755 5.328759 -5.458377 -58.416282 -2.082245 -6.732183 -11.394250 -31.926412 4.313610 0.000000 0.000000 0.000000 16.827563 -2.101075 -1.410337 56.710111 7.637346 -2.811046 -0.076186 18.864709 0.843630 0.000000 0.000000 0.000000 
-0.064326 0.932541 0.151181 0.033115 5.828727 3.387517 1.166469 -1.062631 -12.220067 1.028724 -3.164277 41.535455 -0.004053 -0.667947 -1.215609 0.000000 0.000000 0.000000 1.967875 1.224505 -11.065569 0.983642 0.230106 23.849609 -2.603749 -4.114553 -7.870439 0.000000 0.000000 0.000000 5.244750 -0.949649 9.122637 0.655739 -0.122165 -3.833907 2.231430 3.749499 12.468523 3.060086 0.103979 -17.623220 0.000000 0.000000 0.000000 -19.813518 3.959297 -5.518697 -56.821828 0.036529 -7.371058 -12.774662 -31.960548 4.499592 0.000000 0.000000 0.000000 16.981215 -0.704532 -0.243889 53.293772 9.375823 -2.053822 1.397597 21.112619 1.252088 0.000000 0.000000 0.000000 
